<svg version="1" xmlns="http://www.w3.org/2000/svg" width="3224" height="640" viewBox="0 0 2418 480" fill="#DF4E3C"><path d="M1037 28.1c-6.5 2.9-12.7 9.4-15 15.7-1.8 4.8-2 7.8-2 33.1 0 21.7.3 28.8 1.5 32.8 1.8 6 8 13.5 13.9 16.6l4.1 2.2 89.6.5 89.6.5-99.8 114.3c-54.9 62.9-100.8 116-102.2 118-4.5 6.9-4.7 8.9-4.7 40.7v30.1l2.6 5.2c2.9 5.8 7.9 10.6 13.8 13.3 3.9 1.8 10.7 1.9 164.1 1.9 154.4 0 160.1-.1 164.1-1.9 6.2-2.8 11.9-8.4 14.5-14.4 2.4-5.1 2.4-5.8 2.4-35.2v-30l-2.8-5.7c-3-6.1-6.4-9.5-13.1-13.1l-4.1-2.2-93.8-.5-93.8-.5 100.3-114.8c55.2-63.2 101.5-116.7 103-119 4.3-6.5 5-13.2 4.6-42.1-.3-23.9-.5-26.5-2.4-30.6-2.9-6.2-6.7-10.5-12.3-13.8l-4.6-2.7-156.5-.2c-155.6-.3-156.5-.3-161 1.8zM222 28.1C134.5 38.8 64.2 93.9 38.2 172.3c-29 87.3.4 183.2 72.8 237.4 68.2 51 163.1 59.4 240.6 21.1 10.7-5.2 14.5-8.5 17.1-14.5 1.8-4.5 1.6-12.1-.6-16.8-2.8-6.2-37.8-56.8-40.7-58.9-1.5-1.1-4.9-2.1-7.9-2.4-4.8-.4-6.1 0-13.6 4.1-45.4 24.5-98.4 17.2-135.7-18.8-43.5-41.8-48.7-103.8-12.8-151.6 15.7-20.9 38.8-36.5 64.1-43.6 9.3-2.6 11.3-2.8 28.5-2.8 17.6.1 18.9.2 27 2.9 9.6 3.2 12.8 4.7 25.2 11.8 7.2 4.1 9.6 5 13.6 5 5.3 0 9.6-1.8 12.8-5.4 3.6-4.1 39.3-56.4 40.4-59.2 1.4-3.8 1.3-12.1-.4-15.9-3.1-7.5-11.8-13-34.6-22-13.6-5.4-29.8-9.8-46.5-12.8-9.4-1.7-17-2.2-35-2.4-12.6-.2-26.4.1-30.5.6zM1644.2 28.1c-33.4 2.9-70 15.6-97.2 33.6-51.6 34.2-84.4 84.8-94.7 146.2-2.8 16.6-2.5 51.4.6 68.5 5.5 31.3 15.7 56.8 33 82.8 32.7 49 82.5 81.4 141.7 91.9 17.1 3.1 51.9 3.4 68.5.6 23-3.8 44.1-10.7 64.1-20.9 61.7-31.3 103.6-89.7 114.4-159.3 2.3-15 2.3-46.9 0-61.9-7.4-47.1-27.3-86.5-60.5-119.7-33.1-33.1-73.6-53.6-119.2-60.3-13.4-2-37.6-2.7-50.7-1.5zm44 108.7c39.9 10.6 68.4 39.2 78.9 79 3.3 12.2 3.7 32 .9 45.1-4.3 20.8-12.8 37.4-27.2 52.6-34.8 36.8-88.5 44.5-131.8 18.8-47.4-28-65.6-87.4-42-137 5.8-12.4 11.2-19.8 22.4-30.8 15.4-15.2 31.5-23.9 52.7-28.5 12.4-2.6 34.4-2.3 46.1.8zM2163 27.6c-20.3 1.8-37.3 5.2-53.5 10.6-78.4 26.1-134.5 95-144.5 177.8-1.5 12.4-1.2 39.2.5 52.6 8.7 66 47.8 124.3 105.5 157.4 61 34.9 136 37.3 199.5 6.5 64-31 108.8-92.9 118-163 1.7-13.4 2-42.1.5-54.5-6.7-53.6-33.4-103.3-73.9-137.2-31.3-26.1-68.3-42.9-107-48.2-11.5-1.6-36.8-2.7-45.1-2zm32.1 107.9c52.7 9.2 91.3 57.1 88.5 110-2 39-25.1 74.1-59.9 91-53.6 25.9-116.8 3.8-142.7-49.9-8.2-17-11.8-35-10.6-52.5 3.3-43.6 32-80.8 73.3-94.7 15.8-5.4 34.9-6.8 51.4-3.9zM606 29.9c-21.9 4.7-40.6 17.2-54 36.2-4.9 7-12.1 20.4-15 27.9-.7 1.9-7.4 16.5-14.8 32.5-7.4 15.9-16.5 35.7-20.2 44-3.7 8.2-8.1 17.7-9.7 21l-3.1 5.9-.7-4.4c-1.5-9.3-5.7-14.3-13-16-5.4-1.2-49 5.2-52.4 7.8-1.9 1.4-3.8 5.4-7.5 15.7-4.1 11.7-4.7 14.4-4 17.4 1.7 6.4 3.6 7 31.3 10.4l25.1 3-1.9 2.1c-1 1.2-2.9 4.1-4.1 6.5-4.9 9.7-5 11.6-5 104.2 0 96.1-.3 91.7 6.7 99.8 1.9 2.3 5.8 5.4 8.7 6.9l5.1 2.7 29.8.3c33.3.4 37.1-.1 44.8-6.1 2.3-1.7 5.6-5.7 7.3-8.7l3.1-5.5.3-35c.3-34.1.3-35 2.3-36.8 2-1.6 9.1-1.7 117.8-1.7 101.2 0 115.9.2 117.8 1.5 2.1 1.5 2.1 2.1 2.5 36.3.3 33.9.4 34.8 2.6 39.4 3.1 6.1 8.5 11.6 14.1 14.2 4.3 2 6.5 2.1 34.4 2.4 34.8.4 37.4-.1 45.5-7.3 8.9-8 8.9-8.2 9.6-52.5.3-21.2.2-62.1-.2-91-1-57.4-1-58-7.2-67.1-1.6-2.4-2.6-4.5-2.2-4.6.4-.1 11.6-1.6 24.8-3.2 13.3-1.6 25.1-3.5 26.2-4.2 2.4-1.5 4.2-5.1 4.2-8.4 0-1.3-2.1-8.6-4.6-16-3.3-9.5-5.3-14.1-6.8-15.1-2.5-1.6-41.3-7.5-49.3-7.6-3.7 0-6.4.7-8.7 2.2-3.7 2.2-7.6 9-7.6 13.1 0 1.3-.4 3-.8 3.6-.9 1.5-2.7-2-10.4-19.7-2.8-6.3-11.1-24.6-18.6-40.5-7.4-16-16.1-35-19.3-42.3-15-34.6-33.5-52.9-62.4-61.9l-9-2.8-71.5-.2c-65.9-.2-72.2-.1-80 1.6zm127.1 104c1.4 1 3.4 4.1 4.6 6.8 7.2 16.4 43.4 108.5 43.6 110.9l.2 2.9-97.9.3c-72.5.1-98.2-.1-98.7-.9-1-1.7-.7-2.5 20.3-54.9 10.7-26.7 20.3-50.8 21.2-53.5 2-6.2 4.8-10.5 7.8-12.1 1.8-1 13-1.3 49.4-1.4 44.8 0 47.2.1 49.5 1.9z"/></svg>
