<?xml version="1.0" encoding="utf-8"?>
<!-- Generator: Adobe Illustrator 16.0.0, SVG Export Plug-In . SVG Version: 6.00 Build 0)  -->
<!DOCTYPE svg PUBLIC "-//W3C//DTD SVG 1.1//EN" "http://www.w3.org/Graphics/SVG/1.1/DTD/svg11.dtd">
<svg version="1.1" id="Layer_1" xmlns:sketch="http://www.bohemiancoding.com/sketch/ns"
	 xmlns="http://www.w3.org/2000/svg" xmlns:xlink="http://www.w3.org/1999/xlink" x="0px" y="0px" width="218px" height="44px"
	 viewBox="0 0 218 44" enable-background="new 0 0 218 44" xml:space="preserve">
<title>Group</title>
<desc>Created with Sketch.</desc>
<g id="Page-1" sketch:type="MSPage">
	<g id="Mobile-Portrait" transform="translate(-58.000000, -381.000000)" sketch:type="MSArtboardGroup">
		<g id="Group" transform="translate(58.000000, 382.000000)" sketch:type="MSLayerGroup">
			<path id="Shape" sketch:type="MSShapeGroup" fill="#8869B8" d="M25.14,8.436c1.261-0.086,2.489-0.141,3.686-0.161
				c1.196-0.022,2.358-0.055,3.49-0.1c2.958-0.131,5.677-0.194,8.156-0.194s4.621,0.01,6.426,0.031
				c1.804,0.024,3.219,0.045,4.241,0.067c1.022,0.021,1.577-0.01,1.663-0.098c0.132-0.131,0.273-0.392,0.424-0.785
				c0.153-0.39,0.295-0.837,0.424-1.336c0.132-0.5,0.24-1,0.326-1.501c0.088-0.5,0.153-0.945,0.196-1.336
				c0.088-0.696-0.359-1.25-1.336-1.664c-0.981-0.412-2.197-0.728-3.655-0.946c-1.457-0.216-3.044-0.359-4.761-0.424
				c-1.719-0.065-3.252-0.119-4.6-0.161c-0.912,0-2.381,0.043-4.404,0.131s-4.317,0.206-6.883,0.357
				c-2.566,0.153-5.253,0.316-8.058,0.49c-2.805,0.175-5.459,0.338-7.96,0.49c-2.503,0.153-4.708,0.261-6.622,0.326
				c-1.915,0.065-3.241,0.077-3.98,0.033c-0.435,0.218-0.816,0.63-1.142,1.24s-0.533,1.251-0.62,1.924
				c-0.086,0.677-0.01,1.305,0.228,1.893C0.62,7.299,1.13,7.679,1.913,7.854c0.304,0.086,0.924,0.218,1.859,0.39
				c0.936,0.175,2.066,0.349,3.394,0.522c1.326,0.175,2.772,0.306,4.337,0.392c1.566,0.088,3.109,0.088,4.633,0
				c-0.349,3.784-0.587,7.372-0.718,10.765c-0.129,3.392-0.196,6.394-0.196,9.004c0,3.046,0.067,5.894,0.196,8.548
				c-0.043,1.26,0.349,2.369,1.175,3.324c0.826,0.957,1.914,1.546,3.262,1.762c0.477,0.088,0.946,0.056,1.403-0.096
				c0.457-0.154,0.847-0.359,1.173-0.622c0.328-0.259,0.565-0.575,0.718-0.944s0.206-0.752,0.163-1.143
				c-0.304-2.044-0.457-4.152-0.457-6.33c0-2.173,0.045-4.306,0.131-6.393c1.044-0.262,2.077-0.467,3.099-0.618
				c1.022-0.153,2.109-0.271,3.264-0.358c1.153-0.089,2.424-0.154,3.817-0.197c1.391-0.043,2.979-0.064,4.763-0.064
				c0.651,0,1.14-0.132,1.467-0.393c0.326-0.26,0.555-0.609,0.685-1.043c0.131-0.436,0.184-0.902,0.163-1.402
				c-0.022-0.502-0.055-1.012-0.098-1.534c-0.088-0.61-0.424-1.087-1.012-1.436c-0.587-0.347-1.283-0.62-2.087-0.814
				c-0.806-0.196-1.687-0.316-2.644-0.359l-2.74-0.131c-0.61-0.045-1.273-0.055-1.989-0.033c-0.718,0.022-1.448,0.065-2.187,0.129
				c-0.74,0.067-1.446,0.143-2.12,0.228c-0.675,0.089-1.273,0.155-1.795,0.196c0.218-2.479,0.479-4.653,0.783-6.524
				C24.66,10.808,24.921,9.395,25.14,8.436L25.14,8.436z M83.922,28.336c-0.697-0.695-1.458-1.305-2.285-1.826
				c-0.826-0.521-1.62-0.979-2.381-1.371c-0.761-0.392-1.426-0.695-1.991-0.914c-0.565-0.218-0.912-0.369-1.044-0.457
				c-0.477-0.261-0.814-0.574-1.012-0.944c-0.194-0.371-0.335-0.685-0.424-0.946c-0.041-0.132-0.119-0.316-0.227-0.555
				c-0.11-0.239-0.283-0.49-0.522-0.751c-0.239-0.261-0.522-0.477-0.849-0.653c-0.325-0.174-0.728-0.261-1.207-0.261
				c-0.478,0-0.902,0.143-1.271,0.424c-0.371,0.283-0.708,0.61-1.012,0.979c-0.304,0.369-0.533,0.75-0.684,1.141
				c-0.155,0.392-0.23,0.718-0.23,0.979c0,0.35,0.01,0.826,0.033,1.437c0.022,0.61,0.271,1.218,0.752,1.827
				c-0.132,0.565-0.263,1.011-0.392,1.339c-0.132,0.325-0.273,0.651-0.424,0.977c-0.153,0.325-0.338,0.696-0.555,1.11
				c-0.218,0.414-0.481,0.967-0.783,1.664c-0.204,0.443-0.363,0.863-0.496,1.268c-0.176,0.225-0.42,0.496-0.742,0.819
				c-0.61,0.61-1.446,1.206-2.511,1.793c-1.067,0.587-2.382,1.099-3.947,1.534c-1.567,0.435-3.351,0.65-5.351,0.65
				c-0.914,0-1.73-0.16-2.446-0.488c-0.718-0.325-1.318-0.728-1.795-1.207c1,0,2.262-0.174,3.784-0.522
				c1.044-0.216,2.044-0.555,3.002-1.01c0.957-0.457,1.804-1.022,2.544-1.697c0.739-0.673,1.326-1.437,1.761-2.284
				c0.435-0.849,0.653-1.771,0.653-2.772c0-1-0.283-1.826-0.849-2.479c-0.565-0.652-1.271-1.175-2.12-1.566
				c-0.849-0.393-1.752-0.674-2.709-0.848c-0.957-0.175-1.826-0.263-2.609-0.263s-1.826,0.122-3.131,0.36
				c-1.305,0.24-2.609,0.685-3.915,1.337c-1.305,0.653-2.491,1.544-3.556,2.674c-1.067,1.132-1.728,2.589-1.991,4.372
				c-0.216,1.523-0.139,2.925,0.23,4.208c0.369,1.282,1.086,2.403,2.152,3.36c1.065,0.957,2.468,1.709,4.208,2.25
				c1.738,0.543,3.872,0.815,6.393,0.815c2.48,0,4.731-0.282,6.752-0.848c2.023-0.563,3.762-1.271,5.22-2.118
				c0.767-0.448,1.455-0.915,2.071-1.396c0.113,0.161,0.252,0.314,0.438,0.45c1.087,0.914,2.209,1.575,3.362,1.989
				c1.151,0.414,2.207,0.686,3.162,0.816c0.957,0.131,1.795,0.172,2.513,0.131c0.718-0.045,1.207-0.067,1.467-0.067
				c0.263,0,0.785-0.096,1.566-0.292c0.783-0.195,1.599-0.553,2.448-1.077c0.849-0.52,1.608-1.263,2.283-2.219
				c0.673-0.955,1.012-2.218,1.012-3.784l0.065,0.067c0-1.044-0.228-1.991-0.685-2.839C85.194,29.802,84.616,29.031,83.922,28.336
				L83.922,28.336z M49.539,29.479c0.479-0.588,1.153-0.989,2.023-1.209c1-0.261,1.761-0.347,2.283-0.261
				c0.522,0.089,0.869,0.326,1.044,0.718c0.216,0.391,0.172,0.807-0.131,1.238c-0.304,0.436-0.869,0.828-1.697,1.178
				c-0.826,0.347-1.62,0.51-2.381,0.487c-0.761-0.022-1.446-0.073-2.054-0.163C48.756,30.729,49.062,30.062,49.539,29.479
				L49.539,29.479z M79.094,33.359v0.063c-0.132,0.654-0.424,1.154-0.881,1.503c-0.457,0.348-1.001,0.565-1.63,0.651
				c-0.632,0.089-1.295,0.089-1.991,0c-0.696-0.086-1.369-0.218-2.023-0.392l-0.716-0.229c-0.218-0.064-0.436-0.119-0.653-0.161
				l0.131-0.263c0.478-0.565,0.859-1.369,1.142-2.412c0.282-1.046,0.531-2.156,0.751-3.329c0.737,0.261,1.475,0.544,2.217,0.849
				c0.739,0.303,1.403,0.642,1.989,1.01c0.587,0.371,1.044,0.772,1.371,1.207C79.127,32.295,79.225,32.795,79.094,33.359
				L79.094,33.359z M102.908,14.537c0.392,0.5,0.955,0.936,1.695,1.304c0.74,0.371,1.719,0.6,2.937,0.685
				c1.216,0.088,2.163-0.053,2.838-0.424c0.673-0.368,1.183-0.804,1.534-1.305c0.347-0.498,0.562-0.988,0.65-1.467
				c0.086-0.478,0.131-0.804,0.131-0.979c0-0.174-0.062-0.543-0.195-1.108c-0.131-0.565-0.412-1.153-0.848-1.762
				c-0.436-0.608-1.088-1.153-1.957-1.63c-0.872-0.479-2.023-0.718-3.458-0.718c-0.959,0-1.719,0.153-2.283,0.457
				c-0.565,0.304-1.001,0.685-1.305,1.141c-0.304,0.457-0.502,0.936-0.587,1.436c-0.088,0.5-0.131,0.945-0.131,1.338
				c0,0.435,0.065,0.924,0.196,1.467C102.255,13.515,102.517,14.037,102.908,14.537L102.908,14.537z M217.7,30.848
				c-0.239-0.762-0.599-1.207-1.075-1.339c-0.957-0.216-1.63-0.141-2.023,0.23c-0.392,0.368-0.871,1.229-1.434,2.577
				c-0.045,0.089-0.131,0.304-0.261,0.652c-0.132,0.35-0.371,0.719-0.718,1.11c-0.348,0.39-0.838,0.739-1.469,1.043
				c-0.631,0.306-1.447,0.457-2.447,0.457s-1.752-0.356-2.25-1.077c-0.502-0.716-0.848-1.587-1.043-2.609
				c-0.196-1.02-0.283-2.088-0.262-3.197c0.022-1.109,0.076-2.053,0.163-2.838c0.086-0.609,0.185-1.414,0.294-2.414
				c0.108-1,0.229-2.087,0.359-3.262c1-0.086,1.945-0.196,2.838-0.326c0.891-0.131,1.577-0.216,2.054-0.261
				c0.871-0.086,1.513-0.423,1.925-1.012c0.414-0.586,0.642-1.01,0.686-1.271c0.086-0.304,0.131-0.587,0.131-0.849
				c0-0.262-0.241-0.5-0.718-0.718c-0.522-0.216-1.034-0.314-1.534-0.292s-1.186,0.033-2.057,0.033
				c-0.477-0.088-1.411-0.088-2.805,0c0.174-1.044,0.316-1.979,0.424-2.807c0.11-0.824,0.209-1.434,0.295-1.826
				c0.218-1.087,0.185-1.925-0.099-2.513c-0.282-0.586-0.532-0.967-0.749-1.142c-0.22-0.216-0.512-0.543-0.881-0.978
				c-0.371-0.435-0.926-0.653-1.663-0.653c-0.741,0.045-1.394,0.294-1.958,0.751c-0.564,0.455-0.979,1.034-1.238,1.728
				c-0.131,0.349-0.229,0.751-0.295,1.207c-0.064,0.457-0.119,0.946-0.16,1.469c-0.047,0.522-0.08,1.022-0.101,1.499
				c-0.022,0.479-0.055,0.873-0.098,1.175c-0.044,0.131-0.076,0.392-0.099,0.783c-0.021,0.391-0.076,0.892-0.16,1.501l-3.785,0.129
				c-0.739,0.045-1.402,0.196-1.99,0.457c-0.587,0.261-1.012,0.522-1.273,0.783c-0.218,0.175-0.392,0.457-0.521,0.848
				c-0.131,0.392-0.194,0.696-0.194,0.914c0.041,0.478,0.185,0.804,0.423,0.977c0.24,0.174,0.514,0.306,0.815,0.392
				c0.392,0.088,1.173,0.131,2.349,0.131h3.785l-0.263,4.6c-0.089,1.544-0.13,2.881-0.13,4.013c0,0.79,0.054,1.594,0.15,2.407
				c-0.135,0.296-0.271,0.618-0.41,0.985c-0.088,0.259-0.436,0.695-1.043,1.305c-0.611,0.609-1.449,1.206-2.514,1.793
				c-1.066,0.587-2.381,1.1-3.947,1.534c-1.565,0.435-3.35,0.651-5.349,0.651c-0.914,0-1.729-0.162-2.446-0.488
				c-0.72-0.326-1.318-0.729-1.795-1.209c0.998,0,2.26-0.172,3.784-0.521c1.043-0.216,2.042-0.555,3.001-1.01
				c0.955-0.457,1.805-1.021,2.544-1.697c0.74-0.673,1.326-1.436,1.761-2.285c0.437-0.848,0.654-1.771,0.654-2.771
				c0-1-0.283-1.826-0.85-2.479c-0.566-0.654-1.271-1.176-2.119-1.568c-0.85-0.391-1.754-0.672-2.709-0.846
				c-0.957-0.176-1.826-0.264-2.609-0.264c-0.785,0-1.828,0.122-3.133,0.361c-1.305,0.238-2.609,0.684-3.913,1.336
				c-1.305,0.652-2.491,1.544-3.558,2.674c-1.064,1.132-1.727,2.589-1.988,4.372c-0.072,0.511-0.1,1.002-0.105,1.485
				c-0.225,0.639-0.555,1.17-1.004,1.58c-0.521,0.479-1.099,0.861-1.729,1.143c-0.63,0.283-1.271,0.49-1.925,0.622
				c-0.652,0.129-1.217,0.216-1.696,0.259c-0.957,0.132-1.979,0.152-3.065,0.064c-1.088-0.088-1.957-0.5-2.609-1.239
				c0.564-0.261,1.24-0.708,2.021-1.336c0.783-0.63,1.51-1.36,2.186-2.188c0.675-0.825,1.252-1.685,1.729-2.575
				c0.479-0.893,0.696-1.73,0.653-2.512c0-0.479-0.12-0.988-0.357-1.533c-0.24-0.545-0.599-1.056-1.076-1.535
				c-0.481-0.478-1.088-0.881-1.828-1.205c-0.74-0.326-1.633-0.533-2.674-0.62c-1.09-0.089-2.197,0.098-3.328,0.553
				c-1.131,0.457-2.198,0.972-3.196,1.534c-1.132,0.652-2.263,1.393-3.394,2.218c0.26-3.044,0.521-5.826,0.782-8.35
				c0.089-1.087,0.185-2.152,0.294-3.198c0.107-1.043,0.217-2.01,0.326-2.901c0.107-0.892,0.194-1.652,0.262-2.285
				c0.064-0.629,0.118-1.077,0.162-1.336c0.043-0.479,0.107-0.893,0.194-1.24c0.088-0.347,0.132-0.663,0.132-0.946
				c0-0.282-0.088-0.555-0.261-0.816c-0.175-0.259-0.479-0.522-0.914-0.781c-0.871-0.565-1.532-0.892-1.989-0.979
				c-0.459-0.088-0.97-0.065-1.533,0.065c-0.565,0.129-1.09,0.533-1.568,1.206c-0.479,0.675-0.827,1.512-1.043,2.513
				c-0.043,0.349-0.129,1.173-0.26,2.479c-0.131,1.305-0.283,2.87-0.457,4.698s-0.349,3.762-0.521,5.806
				c-0.175,2.046-0.338,3.98-0.49,5.806c-0.152,1.828-0.283,3.417-0.392,4.765l-0.101,1.203c-0.086,0.217-0.173,0.438-0.259,0.688
				c-0.129,0.304-0.446,0.718-0.944,1.238c-0.5,0.523-1.229,1.043-2.186,1.565s-2.166,0.969-3.623,1.338s-3.207,0.556-5.251,0.556
				c-1.828,0-3.209-0.195-4.144-0.584c-0.936-0.388-1.608-0.818-2.022-1.294s-0.63-0.952-0.651-1.426
				c-0.023-0.476-0.033-0.821-0.033-1.036c0-0.172,0.098-0.496,0.293-0.972c0.199-0.476,0.513-0.972,0.947-1.489
				s0.979-0.972,1.631-1.359c0.654-0.389,1.435-0.582,2.349-0.582c0.435,0,0.771,0.088,1.012,0.261
				c0.239,0.174,0.402,0.37,0.488,0.586c0.088,0.22,0.132,0.459,0.132,0.72v0.587c0,0.13,0.021,0.347,0.064,0.651
				c0.043,0.306,0.142,0.599,0.295,0.881c0.15,0.283,0.402,0.544,0.748,0.783c0.35,0.24,0.85,0.359,1.502,0.359
				s1.207-0.209,1.664-0.621s0.837-0.914,1.141-1.5c0.305-0.588,0.523-1.186,0.652-1.793c0.132-0.608,0.197-1.111,0.197-1.506
				c0-0.441-0.088-0.97-0.262-1.585c-0.173-0.616-0.531-1.209-1.074-1.78c-0.547-0.57-1.341-1.065-2.383-1.484
				c-1.044-0.417-2.479-0.627-4.306-0.627c-1.087,0-2.351,0.152-3.787,0.459c-1.438,0.304-2.815,0.869-4.131,1.695
				c-1.316,0.826-2.435,1.947-3.356,3.359c-0.921,1.414-1.402,3.253-1.447,5.514l0.002,0.074l-0.099,0.188
				c-0.282,0.52-0.653,1.055-1.108,1.597c-0.457,0.544-1,1.001-1.631,1.371c-0.631,0.369-1.338,0.513-2.121,0.424
				c-0.696-0.086-1.239-0.368-1.631-0.847c-0.393-0.479-0.676-1.034-0.85-1.664c-0.173-0.632-0.271-1.283-0.294-1.958
				c-0.022-0.675-0.012-1.251,0.033-1.728l0.228-2.514c0.065-0.718,0.098-1.316,0.098-1.795c0-0.174-0.077-0.423-0.228-0.749
				c-0.153-0.325-0.381-0.642-0.685-0.946c-0.304-0.304-0.651-0.564-1.043-0.783c-0.392-0.215-0.849-0.325-1.371-0.325
				c-1.262,0-2.209,0.294-2.839,0.881s-0.945,1.817-0.945,3.687c0,0.652-0.022,1.426-0.065,2.316
				c-0.021,0.436-0.032,0.883-0.033,1.343l-0.228,0.515c-0.045,0.09-0.131,0.305-0.261,0.653c-0.132,0.349-0.369,0.718-0.718,1.11
				c-0.349,0.39-0.838,0.738-1.469,1.043c-0.63,0.307-1.446,0.457-2.446,0.457c-1.001,0-1.752-0.357-2.25-1.077
				c-0.502-0.716-0.849-1.587-1.044-2.608c-0.196-1.021-0.283-2.09-0.261-3.197c0.021-1.11,0.076-2.055,0.163-2.838
				c0.086-0.61,0.186-1.414,0.294-2.416c0.106-1,0.227-2.086,0.359-3.261c1-0.086,1.946-0.196,2.838-0.326
				c0.892-0.131,1.577-0.216,2.054-0.261c0.871-0.086,1.512-0.423,1.926-1.012c0.414-0.586,0.642-1.01,0.685-1.271
				c0.086-0.304,0.131-0.587,0.131-0.849c0-0.262-0.24-0.5-0.718-0.718c-0.522-0.216-1.034-0.314-1.534-0.292
				s-1.185,0.033-2.056,0.033c-0.478-0.088-1.412-0.088-2.805,0c0.174-1.044,0.316-1.979,0.424-2.807
				c0.11-0.824,0.208-1.434,0.295-1.826c0.216-1.087,0.184-1.925-0.098-2.513c-0.285-0.586-0.534-0.967-0.751-1.142
				c-0.22-0.216-0.512-0.543-0.881-0.977c-0.371-0.435-0.924-0.653-1.663-0.653c-0.742,0.045-1.393,0.294-1.958,0.751
				c-0.565,0.455-0.979,1.034-1.24,1.728c-0.131,0.349-0.228,0.751-0.294,1.207c-0.065,0.457-0.12,0.946-0.163,1.469
				c-0.043,0.522-0.076,1.022-0.098,1.499c-0.022,0.479-0.055,0.873-0.098,1.175c-0.043,0.131-0.076,0.392-0.098,0.783
				c-0.022,0.391-0.077,0.892-0.163,1.501l-3.784,0.129c-0.739,0.045-1.403,0.196-1.991,0.457c-0.586,0.261-1.01,0.522-1.271,0.783
				c-0.216,0.175-0.392,0.457-0.522,0.848c-0.129,0.392-0.196,0.696-0.196,0.914c0.045,0.478,0.185,0.804,0.426,0.977
				c0.237,0.174,0.51,0.306,0.814,0.392c0.392,0.088,1.175,0.131,2.348,0.131h3.784c-0.086,1.524-0.174,3.056-0.259,4.6
				c-0.089,1.544-0.131,2.881-0.131,4.013c0,1.306,0.131,2.642,0.39,4.013c0.261,1.369,0.751,2.609,1.469,3.72
				c0.718,1.108,1.685,2.013,2.905,2.707c1.216,0.696,2.762,1.044,4.631,1.044c1.479,0,2.783-0.294,3.915-0.881
				c1.035-0.538,1.917-1.16,2.661-1.862c0.246,0.481,0.542,0.938,0.895,1.372c0.675,0.826,1.599,1.501,2.774,2.023
				c1.175,0.521,2.674,0.804,4.5,0.849c2.09,0.041,3.773-0.326,5.057-1.111c1.112-0.678,2-1.442,2.687-2.284
				c0.183,0.149,0.37,0.293,0.567,0.426c0.877,0.586,1.855,1.033,2.93,1.338c1.074,0.306,2.092,0.52,3.047,0.652
				c0.959,0.131,1.807,0.196,2.547,0.196h1.5c0.393,0,1.184-0.022,2.383-0.065c1.194-0.045,2.575-0.229,4.141-0.555
				c1.566-0.326,3.197-0.816,4.894-1.469c0.812-0.312,1.587-0.698,2.329-1.15c0.102,0.538,0.237,1.051,0.443,1.51
				c0.281,0.631,0.707,1.076,1.272,1.338c0.521,0.259,1.075,0.401,1.663,0.424c0.587,0.021,1.12-0.022,1.6-0.133
				c0.478-0.106,0.869-0.27,1.174-0.487s0.479-0.457,0.521-0.716l0.392-3.393c0.522,0.478,1.252,1,2.188,1.562
				c0.934,0.566,1.946,1.101,3.033,1.599c1.087,0.502,2.207,0.927,3.359,1.273c1.153,0.347,2.252,0.52,3.295,0.52
				c2.914-0.041,5.221-0.358,6.916-0.946c1.697-0.586,3.197-1.422,4.504-2.51l0.003-0.003c0.245,0.295,0.51,0.581,0.811,0.851
				c1.065,0.957,2.468,1.709,4.21,2.25c1.737,0.543,3.87,0.815,6.393,0.815c2.479,0,4.729-0.282,6.752-0.848
				c2.023-0.563,3.763-1.271,5.219-2.118c1.311-0.764,2.389-1.582,3.259-2.45l0.134,0.231c0.717,1.107,1.685,2.013,2.904,2.707
				c1.217,0.695,2.76,1.044,4.631,1.044c1.479,0,2.784-0.294,3.915-0.882c1.13-0.586,2.087-1.271,2.872-2.053
				c0.782-0.785,1.402-1.567,1.859-2.351c0.457-0.782,0.751-1.371,0.881-1.761l0.064,0.062
				C217.865,32.468,217.939,31.607,217.7,30.848L217.7,30.848z M158.037,29.479c-0.35,0.455-0.751,0.856-1.207,1.207
				c-0.457,0.347-0.924,0.641-1.403,0.879c-0.479,0.24-0.849,0.358-1.11,0.358c-0.436,0.045-0.815,0.056-1.14,0.033
				c-0.325-0.021-0.685-0.119-1.077-0.294c0.478-0.74,0.955-1.414,1.437-2.021c0.478-0.61,0.89-1.022,1.237-1.24
				c0.35-0.217,0.74-0.445,1.176-0.686c0.435-0.236,0.837-0.412,1.205-0.52c0.369-0.11,0.686-0.11,0.947,0
				c0.26,0.107,0.392,0.402,0.392,0.879h0.065C158.559,28.552,158.384,29.021,158.037,29.479L158.037,29.479z M180.546,29.479
				c0.478-0.588,1.153-0.989,2.022-1.209c1-0.261,1.762-0.347,2.283-0.261c0.523,0.089,0.871,0.326,1.043,0.718
				c0.219,0.391,0.174,0.807-0.131,1.238c-0.304,0.436-0.869,0.828-1.695,1.178c-0.825,0.347-1.62,0.51-2.381,0.487
				c-0.763-0.022-1.447-0.073-2.056-0.163C179.764,30.729,180.064,30.062,180.546,29.479L180.546,29.479z"/>
		</g>
	</g>
</g>
</svg>
