<?xml version="1.0" encoding="UTF-8"?>
<svg width="136px" height="44px" viewBox="0 0 136 44" version="1.1" xmlns="http://www.w3.org/2000/svg" xmlns:xlink="http://www.w3.org/1999/xlink">
    <defs>
        <polygon id="path-1" points="0.0287323944 0.228130435 135.743803 0.228130435 135.743803 44 0.0287323944 44"></polygon>
    </defs>
    <g id="Prototyping" stroke="none" stroke-width="1" fill="none" fill-rule="evenodd">
        <g id="(xs)---Explore---Active---Genre-+-Filter" transform="translate(-99.000000, -214.000000)">
            <g id="Group" transform="translate(99.000000, 214.000000)">
                <mask id="mask-2" fill="white">
                    <use xlink:href="#path-1"></use>
                </mask>
                <g id="Clip-2"></g>
                <path d="M88.6054366,17.7769565 C87.5318028,17.7769565 86.6722254,18.6354348 86.6722254,19.7081739 C86.6722254,20.780913 87.5318028,21.615 88.6054366,21.615 C89.6800282,21.615 90.515662,20.780913 90.515662,19.7081739 C90.515662,18.6354348 89.6800282,17.7769565 88.6054366,17.7769565 Z M97.9362817,25.4535217 C99.3920563,25.4535217 100.131915,26.3832609 100.370873,27.5511739 L103.402141,27.1226522 C103.106197,24.3965652 100.943606,22.5691304 98.0076338,22.5691304 C94.2360282,22.5691304 92.0638592,25.4061739 92.0638592,29.1485652 C92.0638592,32.9153478 94.1407324,35.5615652 97.8883944,35.5615652 C101.03938,35.5615652 102.935239,33.8135217 103.402141,31.0793043 L100.370873,30.6507826 C100.131915,31.8904348 99.3685915,32.6766957 97.8883944,32.6766957 C95.9072958,32.6766957 95.1669577,31.0797826 95.1669577,29.1007391 C95.1669577,27.193913 95.9786479,25.4535217 97.9362817,25.4535217 Z M116.439944,22.9024783 L112.549099,22.9024783 L108.228704,27.0743478 L108.228704,18.8511304 L105.125606,19.2791739 L105.125606,35.2277391 L108.228704,35.2277391 L108.228704,30.9606957 L109.422535,29.7923043 L113.146254,35.2277391 L117.013155,35.2277391 L111.642113,27.599 L116.439944,22.9024783 Z M135.743803,25.6916957 L135.743803,22.9024783 L133.16507,22.9024783 L133.16507,18.8511304 L130.061972,19.2791739 L130.061972,31.9616957 C130.061972,34.7748261 131.733239,35.2277391 133.905408,35.2277391 L135.743803,35.2277391 L135.743803,32.4858696 L134.454197,32.4858696 C133.427972,32.4858696 133.16507,32.1525217 133.16507,31.2701304 L133.16507,25.6916957 L135.743803,25.6916957 Z M86.9825352,35.2277391 L90.0856338,35.2277391 L90.0856338,22.9029565 L86.9825352,22.9029565 L86.9825352,35.2277391 Z M120.073155,27.599 C120.40693,25.9542609 121.457577,25.3583478 122.722761,25.3583478 C124.154592,25.3583478 125.014169,26.1211739 125.276592,27.599 L120.073155,27.599 Z M122.770648,22.5691304 C119.28493,22.5691304 116.850338,25.0962609 116.850338,29.1007391 C116.850338,33.3921739 119.261465,35.5615652 122.794113,35.5615652 C125.491127,35.5615652 127.486113,33.7795652 128.021972,31.6752174 L125.014169,31.2466957 C124.679915,32.2242609 124.011408,32.8196957 122.746225,32.8196957 C121.123324,32.8196957 120.144507,31.9143478 119.97738,30.0543913 L128.355746,30.0543913 C128.37969,29.6966522 128.403155,29.3393913 128.403155,28.9103913 C128.403155,24.9527826 126.184056,22.5691304 122.770648,22.5691304 Z M48.370507,21.8775652 L48.370507,22.9024783 L46.7945352,22.9024783 L46.7945352,25.6916957 L48.370507,25.6916957 L48.370507,35.2277391 L51.4736056,35.2277391 L51.4736056,25.6916957 L53.7415493,25.6916957 L54.1701408,22.9024783 L51.4736056,22.9024783 L51.4736056,22.2592174 C51.4736056,21.3533913 51.7360282,20.9478261 52.8580282,20.9478261 L54.1945634,20.9478261 L54.1945634,18.1351739 L52.1416338,18.1351739 C49.4446197,18.1351739 48.370507,19.589087 48.370507,21.8775652 Z M0.995098592,19.0907391 L4.73366197,18.7004783 L2.92160563,30.0185217 L16.4799437,30.0185217 L6.56535211,33.1013913 L7.06673239,42.6503478 L19.924,44 L22.1411831,30.0185217 L32.6543662,30.0185217 L32.0710986,18.9085217 L17.4515775,17.3737826 L37.7227606,15.258913 L39.4495775,4.36891304 L0,0.228130435 L0.995098592,19.0907391 Z M82.4758592,18.8511304 L79.3727606,19.2791739 L79.3727606,31.9616957 C79.3727606,34.7748261 81.0435493,35.2277391 83.2161972,35.2277391 L85.0541127,35.2277391 L85.0541127,32.4858696 L83.764507,32.4858696 C82.7382817,32.4858696 82.4758592,32.1525217 82.4758592,31.2701304 L82.4758592,25.6916957 L85.0541127,25.6916957 L85.0541127,22.9024783 L82.4758592,22.9024783 L82.4758592,18.8511304 Z M74.6343099,28.0997391 L72.008169,27.2417391 C71.0537746,26.907913 70.7908732,26.621913 70.7908732,26.1685217 C70.7908732,25.5013478 71.3161972,25.1675217 72.4856056,25.1675217 C73.583662,25.1675217 74.3714085,25.7629565 74.3953521,26.6692609 L77.4270986,26.2407391 C77.4270986,23.6452174 75.0873239,22.5691304 72.5574366,22.5691304 C70.1223662,22.5691304 67.6403662,23.5940435 67.5924789,26.431087 C67.5924789,28.6956522 69.2632676,29.4584783 70.7195211,29.9113913 L72.7240845,30.5551304 C74.1329296,31.0319565 74.6103662,31.1988696 74.6103662,31.8426087 C74.6103662,32.6527826 74.0371549,32.9866087 72.5095493,32.9866087 C71.1964789,32.9866087 70.4092113,32.3672609 70.3378592,31.2227826 L67.3061127,31.6513043 C67.3061127,34.3262174 69.7167606,35.5615652 72.533493,35.5615652 C75.1112676,35.5615652 77.7129859,34.5127391 77.7129859,31.5566087 C77.7129859,29.5302174 76.4482817,28.7195652 74.6343099,28.0997391 Z M57.7296056,27.599 C58.0638592,25.9542609 59.114507,25.3583478 60.3792113,25.3583478 C61.8115211,25.3583478 62.6706197,26.1211739 62.9335211,27.599 L57.7296056,27.599 Z M60.4270986,22.5691304 C56.9418592,22.5691304 54.5067887,25.0962609 54.5067887,29.1007391 C54.5067887,33.3921739 56.9183944,35.5615652 60.4510423,35.5615652 C63.1480563,35.5615652 65.1430423,33.7795652 65.6784225,31.6752174 L62.6706197,31.2466957 C62.3363662,32.2242609 61.668338,32.8196957 60.4031549,32.8196957 C58.7797746,32.8196957 57.8009577,31.9143478 57.6343099,30.0543913 L66.0121972,30.0543913 C66.0366197,29.6966522 66.0600845,29.3393913 66.0600845,28.9103913 C66.0600845,24.9527826 63.840507,22.5691304 60.4270986,22.5691304 Z" id="Fill-1" fill="#181B1E" mask="url(#mask-2)"></path>
            </g>
        </g>
    </g>
</svg>
