<?xml version="1.0" encoding="UTF-8" standalone="no"?>
<!-- Created with Inkscape (http://www.inkscape.org/) -->

<svg
   xmlns:dc="http://purl.org/dc/elements/1.1/"
   xmlns:cc="http://creativecommons.org/ns#"
   xmlns:rdf="http://www.w3.org/1999/02/22-rdf-syntax-ns#"
   xmlns:svg="http://www.w3.org/2000/svg"
   xmlns="http://www.w3.org/2000/svg"
   xmlns:sodipodi="http://sodipodi.sourceforge.net/DTD/sodipodi-0.dtd"
   xmlns:inkscape="http://www.inkscape.org/namespaces/inkscape"
   id="svg2"
   version="1.1"
   inkscape:version="0.48.5 r10040"
   width="1064.983"
   height="186.67488"
   xml:space="preserve"
   sodipodi:docname="fundingoptions-logo-white.svg"><metadata
     id="metadata8"><rdf:RDF><cc:Work
         rdf:about=""><dc:format>image/svg+xml</dc:format><dc:type
           rdf:resource="http://purl.org/dc/dcmitype/StillImage" /><dc:title></dc:title></cc:Work></rdf:RDF></metadata><defs
     id="defs6"><clipPath
       clipPathUnits="userSpaceOnUse"
       id="clipPath16"><path
         d="M 0,768 1024,768 1024,0 0,0 0,768 z"
         id="path18"
         inkscape:connector-curvature="0" /></clipPath><clipPath
       clipPathUnits="userSpaceOnUse"
       id="clipPath88"><path
         d="m 61.513,402.795 62.23,0 0,43.564 -62.23,0 0,-43.564 z"
         id="path90"
         inkscape:connector-curvature="0" /></clipPath></defs><sodipodi:namedview
     pagecolor="#ffffff"
     bordercolor="#666666"
     borderopacity="1"
     objecttolerance="10"
     gridtolerance="10"
     guidetolerance="10"
     inkscape:pageopacity="0"
     inkscape:pageshadow="2"
     inkscape:window-width="1199"
     inkscape:window-height="727"
     id="namedview4"
     showgrid="false"
     fit-margin-top="15"
     fit-margin-right="15"
     fit-margin-bottom="15"
     fit-margin-left="15"
     inkscape:zoom="1.3906433"
     inkscape:cx="200.30465"
     inkscape:cy="111.02684"
     inkscape:window-x="0"
     inkscape:window-y="0"
     inkscape:window-maximized="0"
     inkscape:current-layer="g10" /><g
     id="g10"
     inkscape:groupmode="layer"
     inkscape:label="fo-logo"
     transform="matrix(1.25,0,0,-1.25,-153.28,572.94875)"><g
       clip-path="url(#clipPath16)"
       id="g14"
       style="fill:#000000;fill-opacity:1"><g
         transform="translate(630.0674,386.1265)"
         id="g20"
         style="fill:#000000;fill-opacity:1"><path
           inkscape:connector-curvature="0"
           id="path22"
           style="fill:#000000;fill-opacity:1;fill-rule:nonzero;stroke:none"
           d="M 0,0 C 0,19.34 15.663,35.019 35.004,35.019 54.345,35.019 70.023,19.34 70.023,0 c 0,-19.342 -15.678,-35.02 -35.019,-35.02 -8.849,0 -16.932,3.275 -23.098,8.689 l -0.007,-33.902 -11.908,0 L 0,0 z M 58.117,0 C 58.117,12.764 47.77,23.112 35.004,23.112 22.239,23.112 11.892,12.764 11.892,0 c 0,-12.764 10.347,-23.114 23.112,-23.114 12.766,0 23.113,10.35 23.113,23.114" /></g><g
         transform="translate(587.9463,363.0518)"
         id="g24"
         style="fill:#000000;fill-opacity:1"><path
           inkscape:connector-curvature="0"
           id="path26"
           style="fill:#000000;fill-opacity:1;fill-rule:nonzero;stroke:none"
           d="m 0,0 c -12.742,0 -23.07,10.33 -23.07,23.073 0,12.742 10.328,23.069 23.07,23.069 12.739,0 23.068,-10.327 23.068,-23.069 C 23.068,10.33 12.739,0 0,0 m 0,58.093 c -19.342,0 -35.021,-15.677 -35.021,-35.02 0,-19.341 15.679,-35.018 35.021,-35.018 19.34,0 35.019,15.677 35.019,35.018 0,19.343 -15.679,35.02 -35.019,35.02" /></g><g
         transform="translate(803.3311,363.0518)"
         id="g28"
         style="fill:#000000;fill-opacity:1"><path
           inkscape:connector-curvature="0"
           id="path30"
           style="fill:#000000;fill-opacity:1;fill-rule:nonzero;stroke:none"
           d="m 0,0 c -12.742,0 -23.071,10.33 -23.071,23.073 0,12.742 10.329,23.069 23.071,23.069 12.738,0 23.068,-10.327 23.068,-23.069 C 23.068,10.33 12.738,0 0,0 m 0,58.093 c -19.342,0 -35.021,-15.677 -35.021,-35.02 0,-19.341 15.679,-35.018 35.021,-35.018 19.339,0 35.019,15.677 35.019,35.018 0,19.343 -15.68,35.02 -35.019,35.02" /></g><g
         transform="translate(857.376,391.0117)"
         id="g32"
         style="fill:#000000;fill-opacity:1"><path
           inkscape:connector-curvature="0"
           id="path34"
           style="fill:#000000;fill-opacity:1;fill-rule:nonzero;stroke:none"
           d="m 0,0 c 0,10.119 8.312,18.323 18.434,18.323 10.116,0 18.272,-8.205 18.272,-18.324 l 0,-0.392 0,-39.512 11.907,0 0,39.833 c 0,16.72 -13.522,30.207 -30.24,30.207 -16.717,0 -30.27,-13.553 -30.27,-30.275 l -0.033,0 -0.002,-39.765 11.899,0" /></g><g
         transform="translate(382.0464,386.126)"
         id="g36"
         style="fill:#000000;fill-opacity:1"><path
           inkscape:connector-curvature="0"
           id="path38"
           style="fill:#000000;fill-opacity:1;fill-rule:nonzero;stroke:none"
           d="m 0,0 c 0,-19.339 -15.663,-35.02 -35.004,-35.02 -19.34,0 -35.019,15.681 -35.019,35.02 0,19.342 15.679,35.02 35.019,35.02 8.849,0 16.933,-3.276 23.098,-8.69 l 0.007,33.903 11.907,0 L 0,0 z m -58.117,0 c 0,-12.764 10.348,-23.113 23.113,-23.113 12.765,0 23.112,10.349 23.112,23.113 0,12.766 -10.347,23.113 -23.112,23.113 -12.765,0 -23.113,-10.347 -23.113,-23.113" /></g><g
         transform="translate(533.916,352.5781)"
         id="g40"
         style="fill:#000000;fill-opacity:1"><path
           inkscape:connector-curvature="0"
           id="path42"
           style="fill:#000000;fill-opacity:1;fill-rule:nonzero;stroke:none"
           d="m 0,0 -0.007,7.218 c -6.165,-5.411 -14.248,-8.69 -23.097,-8.69 -19.341,0 -35.021,15.681 -35.021,35.02 0,19.342 15.68,35.019 35.021,35.019 19.34,0 35.003,-15.677 35.003,-35.019 L 11.916,3.459 c 0,-19.34 -15.68,-35.018 -35.02,-35.018 -12.243,0 -23.035,6.283 -29.295,15.8 l 11.894,3.983 c 4.239,-4.828 10.472,-7.876 17.401,-7.876 11.565,0 21.408,8.559 23.104,19.652 m -46.217,33.548 c 0,-12.764 10.347,-23.113 23.113,-23.113 12.764,0 23.112,10.349 23.112,23.113 0,12.765 -10.348,23.113 -23.112,23.113 -12.766,0 -23.113,-10.348 -23.113,-23.113" /></g><g
         transform="translate(169.645,434.4609)"
         id="g44"
         style="fill:#000000;fill-opacity:1"><path
           inkscape:connector-curvature="0"
           id="path46"
           style="fill:#000000;fill-opacity:1;fill-rule:nonzero;stroke:none"
           d="m 0,0 c -11.575,0 -21.15,-8.513 -22.834,-19.619 l 22.834,0 0,-11.906 -23.1,0 -0.012,-51.829 -11.909,0 0.017,60.233 c 0,19.342 15.664,35.019 35.004,35.019 L 0,0 z" /></g><g
         transform="translate(225.355,381.2412)"
         id="g48"
         style="fill:#000000;fill-opacity:1"><path
           inkscape:connector-curvature="0"
           id="path50"
           style="fill:#000000;fill-opacity:1;fill-rule:nonzero;stroke:none"
           d="m 0,0 c 0,-10.118 -8.312,-18.323 -18.434,-18.323 -10.117,0 -18.274,8.205 -18.274,18.325 l 0,0.391 0,39.511 -11.906,0 0,-39.832 c 0,-16.721 13.522,-30.207 30.24,-30.207 16.719,0 30.272,13.554 30.272,30.275 l 0.032,0 0.002,39.764 -11.898,0" /></g><g
         transform="translate(256.3145,391.0117)"
         id="g52"
         style="fill:#000000;fill-opacity:1"><path
           inkscape:connector-curvature="0"
           id="path54"
           style="fill:#000000;fill-opacity:1;fill-rule:nonzero;stroke:none"
           d="m 0,0 c 0,10.119 8.312,18.323 18.434,18.323 10.117,0 18.274,-8.205 18.274,-18.324 l 0,-0.392 0,-39.512 11.906,0 0,39.833 c 0,16.72 -13.522,30.207 -30.241,30.207 -16.718,0 -30.271,-13.553 -30.271,-30.275 l -0.032,0 -0.002,-39.765 11.898,0" /></g><g
         transform="translate(420.0825,391.0117)"
         id="g56"
         style="fill:#000000;fill-opacity:1"><path
           inkscape:connector-curvature="0"
           id="path58"
           style="fill:#000000;fill-opacity:1;fill-rule:nonzero;stroke:none"
           d="m 0,0 c 0,10.119 8.312,18.323 18.434,18.323 10.116,0 18.273,-8.205 18.273,-18.324 l 0,-0.392 0,-39.512 11.906,0 0,39.833 c 0,16.72 -13.522,30.207 -30.24,30.207 -16.717,0 -30.271,-13.553 -30.271,-30.275 l -0.031,0 -0.003,-39.765 11.899,0" /></g><g
         transform="translate(389.1499,421.1455)"
         id="g60"
         style="fill:#000000;fill-opacity:1"><path
           inkscape:connector-curvature="0"
           id="path62"
           style="fill:#000000;fill-opacity:1;fill-rule:nonzero;stroke:none"
           d="m 0,0 0,-70.039 11.906,0 0,70.039" /></g><g
         transform="translate(389.1499,446.3584)"
         id="g64"
         style="fill:#000000;fill-opacity:1"><path
           inkscape:connector-curvature="0"
           id="path66"
           style="fill:#000000;fill-opacity:1;fill-rule:nonzero;stroke:none"
           d="m 0,0 0,-11.906 11.906,0 0,11.906" /></g><g
         transform="translate(749.3096,421.1455)"
         id="g68"
         style="fill:#000000;fill-opacity:1"><path
           inkscape:connector-curvature="0"
           id="path70"
           style="fill:#000000;fill-opacity:1;fill-rule:nonzero;stroke:none"
           d="m 0,0 0,-70.039 11.907,0 0,70.039" /></g><g
         transform="translate(749.3096,446.3584)"
         id="g72"
         style="fill:#000000;fill-opacity:1"><path
           inkscape:connector-curvature="0"
           id="path74"
           style="fill:#000000;fill-opacity:1;fill-rule:nonzero;stroke:none"
           d="m 0,0 0,-11.906 11.907,0 0,11.906" /></g><g
         transform="translate(719.123,382.623)"
         id="g76"
         style="fill:#000000;fill-opacity:1"><path
           inkscape:connector-curvature="0"
           id="path78"
           style="fill:#000000;fill-opacity:1;fill-rule:nonzero;stroke:none"
           d="m 0,0 c 1.684,-11.104 11.515,-19.617 23.091,-19.617 l 0,-11.902 c -19.339,0 -35.005,15.68 -35.005,35.021 l -0.015,60.233 11.907,0 0.007,-31.517 23.106,0 0,-11.906 L -0.01,20.311 0,0 z" /></g><g
         transform="translate(962.6104,406.7021)"
         id="g80"
         style="fill:#000000;fill-opacity:1"><path
           inkscape:connector-curvature="0"
           id="path82"
           style="fill:#000000;fill-opacity:1;fill-rule:nonzero;stroke:none"
           d="m 0,0 c 0,0 -5.554,14.444 -24.428,14.432 -7.173,-0.005 -19.633,-4.59 -20.125,-17.853 -0.539,-14.51 13.047,-18.537 18.715,-20.441 5.032,-1.691 13.953,-3.831 13.936,-11.079 -0.014,-5.213 -3.871,-9.147 -12.949,-8.748 -8.356,0.364 -12.812,8.051 -12.812,8.051 L -49.7,-39.165 c 0,0 7.828,-16.431 25.838,-16.48 10.532,-0.026 23.765,6.784 23.827,20.02 0.056,12.138 -7.531,17.597 -13.224,19.989 -7.152,3.004 -19.011,4.98 -19.011,11.467 0,4.53 1.965,6.707 8.405,6.707 8.775,0 11.828,-6.066 11.828,-6.066 L 0,0 z" /></g></g><path
       style="fill:#a0a0a0;stroke:none"
       d="m 29.523952,101.8655 c 0,-17.79752 0.206449,-25.078323 0.458774,-16.179564 0.252325,8.898759 0.252325,23.460364 0,32.359124 -0.252325,8.89876 -0.458774,1.61796 -0.458774,-16.17956 z"
       id="path3090"
       inkscape:connector-curvature="0"
       transform="matrix(0.8,0,0,-0.8,122.624,458.359)" /></g></svg>