<svg xmlns="http://www.w3.org/2000/svg" fill="none" height="18" viewBox="0 0 105 18" width="105"><g fill="#fff"><path d="m.464844.600098h5.615996v6.288002l4.77596-6.288002h6.528l-5.856 7.296002 5.976 9.504h-6.696l-3.28796-5.328-1.44 1.752v3.576h-5.615996z"/><path d="m26.0361 8.5921c.672 0 1.2-.144 1.584-.432s.576-.688.576-1.2v-.048c0-.544-.192-.944-.576-1.2-.384-.272-.904-.408-1.56-.408h-2.448v3.288zm-8.04-7.992002h8.208c1.504 0 2.736.176 3.696.528002.976.336 1.76.8 2.352 1.392.512.512.896 1.088 1.152 1.728s.384 1.392.384 2.256v.048c0 1.232-.296 2.272-.888 3.12s-1.4 1.52-2.424 2.016l3.912 5.712h-6.408l-3.168-4.8h-1.2v4.8h-5.616z"/><path d="m45.2797 11.2201-1.536-4.08006-1.536 4.08006zm-4.272-10.680061h5.568l7.08 16.920061h-6.096l-.888-2.256h-5.88l-.864 2.256h-6z"/><path d="m54.3477.600098h5.616v6.288002l4.776-6.288002h6.528l-5.856 7.296002 5.976 9.504h-6.696l-3.288-5.328-1.44 1.752v3.576h-5.616z"/><path d="m71.8789.600098h14.328v4.608002h-8.808v1.704h8.208v4.056h-8.208v1.824h8.928v4.608h-14.448z"/><path d="m87.8398.600098h5.256l5.976 7.416002v-7.416002h5.5682v16.800002h-4.9922l-6.24-7.752v7.752h-5.568z"/></g></svg>
