<?xml version="1.0" encoding="utf-8"?>
<!-- Generator: Adobe Illustrator 18.1.1, SVG Export Plug-In . SVG Version: 6.00 Build 0)  -->
<!DOCTYPE svg PUBLIC "-//W3C//DTD SVG 1.1//EN" "http://www.w3.org/Graphics/SVG/1.1/DTD/svg11.dtd">
<svg version="1.1" id="Layer_1" xmlns="http://www.w3.org/2000/svg" xmlns:xlink="http://www.w3.org/1999/xlink" x="0px" y="0px"
	 viewBox="0 0 400 225" enable-background="new 0 0 400 225" xml:space="preserve">
<g>
	<path fill="#25292B" d="M308.4,100.5h-3.6c-1,0-1.8,0.8-1.8,1.8v13.9c0,1.8-0.2,3.2-0.7,4.3c-0.9,2-2.6,3-5,3
		c-1.9,0-3.2-0.7-3.8-2.1c-0.4-0.8-0.5-2-0.5-3.5v-15.5c0-1-0.8-1.8-1.8-1.8h-3.7c-1,0-1.8,0.8-1.8,1.8v15.5c0,3.1,0.4,5.5,1.2,7.1
		c1.4,2.9,4.1,4.4,8.2,4.4c1.4,0,2.6-0.2,3.7-0.6c1-0.4,2.1-1.1,3.2-2.1c0.4-0.3,0.7-0.7,1-1.1c0.3-0.4,0.4-0.7,0.5-0.8v2.2
		c0,1,0.8,1.8,1.8,1.8h3.3c1,0,1.8-0.8,1.8-1.8v-24.7C310.2,101.3,309.4,100.5,308.4,100.5z"/>
	<path fill="#25292B" d="M249.7,91h-3.6c-1,0-1.8,0.8-1.8,1.8V127c0,1,0.8,1.8,1.8,1.8h3.6c1,0,1.8-0.8,1.8-1.8V92.8
		C251.5,91.8,250.7,91,249.7,91z"/>
	<g>
		<path fill="#25292B" d="M185.9,100.5h-3.6c-1,0-1.8,0.8-1.8,1.8V127c0,1,0.8,1.8,1.8,1.8h3.6c1,0,1.8-0.8,1.8-1.8v-24.7
			C187.7,101.3,186.9,100.5,185.9,100.5z"/>
		<path fill="#25292B" d="M180.4,95.8c0,1,0.8,1.8,1.8,1.8h3.6c1,0,1.8-0.8,1.8-1.8v-3c0-1-0.8-1.8-1.8-1.8h-3.6
			c-1,0-1.8,0.8-1.8,1.8V95.8z"/>
	</g>
	<path fill="#25292B" d="M279.2,125c-2.3,2.9-5.8,4.3-10.5,4.3c-4.7,0-8.2-1.4-10.5-4.3c-2.3-2.9-3.5-6.3-3.5-10.3
		c0-4,1.2-7.4,3.5-10.3c2.3-2.9,5.8-4.4,10.5-4.4c4.7,0,8.2,1.5,10.5,4.4c2.3,2.9,3.5,6.3,3.5,10.3
		C282.6,118.7,281.5,122.1,279.2,125z M273.4,121c1.1-1.5,1.7-3.6,1.7-6.4c0-2.8-0.6-4.9-1.7-6.4c-1.1-1.5-2.7-2.2-4.8-2.2
		c-2.1,0-3.7,0.7-4.8,2.2c-1.1,1.5-1.7,3.6-1.7,6.4c0,2.7,0.6,4.9,1.7,6.4c1.1,1.5,2.7,2.2,4.8,2.2
		C270.7,123.3,272.3,122.5,273.4,121z"/>
	<path fill="#25292B" d="M338.2,91h-3.6c-1,0-1.8,0.8-1.8,1.8v11.6c-0.8-1.3-1.8-2.3-3.1-3c-1.3-0.7-2.8-1.1-4.4-1.1
		c-3.6,0-6.5,1.3-8.6,4c-2.1,2.7-3.2,6.4-3.2,11.1c0,4.1,1.1,7.4,3.3,10c2.2,2.6,4.9,3.9,8.1,3.9c1.9,0,3.6-0.4,4.9-1.1
		c1.3-0.7,2.5-1.9,3.5-3.6v2.5c0,1,0.8,1.8,1.8,1.8h3.3c1,0,1.8-0.8,1.8-1.8V92.8C340,91.8,339.2,91,338.2,91z M331.4,120.9
		c-1.1,1.5-2.6,2.3-4.6,2.3c-2,0-3.5-0.8-4.5-2.3c-1-1.5-1.5-3.5-1.5-6.1c0-2.4,0.5-4.3,1.5-5.9c1-1.6,2.5-2.4,4.6-2.4
		c1.4,0,2.6,0.4,3.6,1.3c1.7,1.4,2.5,3.8,2.5,7.2C333,117.4,332.4,119.4,331.4,120.9z"/>
	<path fill="#25292B" d="M215.4,126.1L215.4,126.1l-7.7-11.4l7.4-11.4l0,0c0.2-0.3,0.2-0.6,0.2-0.9c0-1-0.8-1.8-1.8-1.8h-4
		c-0.7,0-1.3,0.4-1.6,0.9l-4.2,7.5l-4.3-7.5v0c-0.3-0.5-0.9-0.9-1.6-0.9h-4.3c-1,0-1.8,0.8-1.8,1.8c0,0.3,0.1,0.6,0.2,0.9v0
		l7.3,11.5l-7.7,11.4v0c-0.2,0.3-0.2,0.6-0.2,0.9c0,1,0.8,1.8,1.8,1.8h4.2c0.7,0,1.3-0.4,1.6-0.9v0l4.5-7.8l4.4,7.8
		c0.3,0.5,0.9,0.9,1.6,0.9h4.5c1,0,1.8-0.8,1.8-1.8C215.6,126.7,215.6,126.4,215.4,126.1z"/>
	<g>
		<path fill="#25292B" d="M241,120.2c0-0.2,0-0.3-0.1-0.5c0-0.2-0.1-0.3-0.2-0.5c-0.3-0.5-0.9-0.9-1.6-0.9h-3.6
			c-0.8,0-1.6,0.6-1.8,1.4c-0.2,0.8-0.6,1.6-1,2.2c-0.7,0.9-1.9,1.4-3.6,1.4c-2.4,0-4-1.1-4.8-3.4c-0.5-1.2-0.7-2.8-0.7-4.8
			c0-2.1,0.2-3.8,0.7-5.1c0.9-2.4,2.5-3.6,5-3.6c1.7,0,2.9,0.6,3.7,1.7c0.3,0.4,0.5,0.9,0.7,1.4c0,0,0,0,0,0c0,0.2,0.1,0.3,0.2,0.5
			c0.3,0.5,0.9,0.9,1.6,0.9h3.8c1,0,1.8-0.8,1.8-1.8c0-0.2,0-0.3-0.1-0.5h0c-0.6-2.7-1.8-4.7-3.5-5.9c-2.2-1.5-5-2.3-8.4-2.3
			c-4,0-7.2,1.3-9.5,3.9c-2.3,2.6-3.4,6.3-3.4,11c0,4.2,1,7.6,3.1,10.2c2.1,2.6,5.3,3.9,9.7,3.9c4.4,0,7.7-1.6,10-4.7
			c0.9-1.2,1.5-2.5,1.9-3.8c0-0.1,0.1-0.2,0.1-0.3l0,0C241,120.4,241,120.3,241,120.2z"/>
	</g>
	<g>
		<path fill="#25292B" d="M174.1,91h-9.3c-0.7,0-1.3,0.4-1.6,0.9c-0.1,0.1-0.1,0.3-0.2,0.4l-5.1,25.3l-5.2-25.4
			c0-0.2-0.1-0.3-0.2-0.5c-0.3-0.5-0.8-0.9-1.5-0.9c0,0-9.5,0-9.5,0c-1,0-1.8,0.8-1.8,1.8V127c0,1,0.8,1.8,1.8,1.8h3.6
			c1,0,1.8-0.8,1.8-1.8c0,0,0-28,0-28.7l6.6,29.2l0,0c0,0.2,0.1,0.3,0.2,0.5c0.3,0.5,0.9,0.9,1.6,0.9h4.7c0.7,0,1.3-0.4,1.6-0.9
			c0.1-0.1,0.1-0.3,0.2-0.5l0.1-0.5l6.6-28.7c0,0.7,0,28.7,0,28.7c0,1,0.8,1.8,1.8,1.8h3.6c1,0,1.8-0.8,1.8-1.8l0-34.2
			C175.9,91.8,175.1,91,174.1,91z"/>
	</g>
	<g>
		<path fill="#25292B" d="M124.9,133c-0.5,0-0.9-0.1-1.3-0.4c-1.1-0.7-1.4-2.2-0.6-3.3c2.2-3.3,3.3-7.1,3.3-11.1
			c0-4-1.2-7.8-3.3-11.1c-0.7-1.1-0.4-2.6,0.6-3.3c1.1-0.7,2.5-0.4,3.3,0.6c2.7,4,4.1,8.8,4.1,13.7c0,4.9-1.4,9.6-4.1,13.7
			C126.4,132.6,125.6,133,124.9,133L124.9,133z"/>
	</g>
	<g>
		<path fill="#25292B" d="M118.1,129.2c-0.5,0-0.9-0.1-1.3-0.4c-1.1-0.7-1.4-2.2-0.6-3.3c1.4-2.1,2.2-4.6,2.2-7.2
			c0-2.6-0.8-5.1-2.2-7.2c-0.7-1.1-0.4-2.6,0.6-3.3c1.1-0.7,2.5-0.4,3.3,0.6c2,2.9,3,6.3,3,9.9c0,3.5-1,6.9-3,9.9
			C119.6,128.8,118.9,129.2,118.1,129.2L118.1,129.2z"/>
	</g>
	<path fill="#25292B" d="M107.1,107.9C106.2,98.4,98.2,91,88.5,91c-8,0-15.2,5.2-17.7,12.7c-6.1,0.9-10.7,6.1-10.7,12.5
		c0,7,5.6,12.6,12.6,12.6h32.2c5.8,0,10.5-4.7,10.5-10.6C115.4,113.2,111.8,109,107.1,107.9z M104.8,124.1H72.6
		c-4.3,0-7.9-3.5-7.9-7.9c0-4.3,3.5-7.9,7.9-7.9c2.1,0,4.1,0.8,5.6,2.3c0.9,0.9,2.4,0.9,3.3,0c0.9-0.9,0.9-2.4,0-3.4
		c-1.6-1.6-3.6-2.7-5.8-3.3c2.2-4.9,7.2-8.2,12.8-8.2c7.7,0,14,6.3,14,14c0,1.5-0.2,3-0.7,4.4c-0.4,1.2,0.3,2.6,1.5,3
		c0.2,0.1,0.5,0.1,0.7,0.1c1,0,1.9-0.6,2.2-1.6c0.3-0.9,0.5-1.9,0.7-2.9c2.2,0.8,3.7,3,3.7,5.4C110.7,121.5,108,124.1,104.8,124.1z"
		/>
</g>
</svg>
